<?xml version="1.0" encoding="UTF-8" standalone="no"?>
<!DOCTYPE svg PUBLIC "-//W3C//DTD SVG 1.1//EN" "http://www.w3.org/Graphics/SVG/1.1/DTD/svg11.dtd">
<svg width="100%" height="100%" viewBox="0 0 800 600" version="1.1" xmlns="http://www.w3.org/2000/svg" xmlns:xlink="http://www.w3.org/1999/xlink" xml:space="preserve" xmlns:serif="http://www.serif.com/" style="fill-rule:evenodd;clip-rule:evenodd;stroke-linecap:round;stroke-linejoin:round;stroke-miterlimit:1.5;">
    <g transform="matrix(1.7,0,0,1.7,-365,-125)">
        <circle cx="450" cy="250" r="150" style="stroke:rgb(255,0,0);stroke-width:0.29px;"/>
    </g>
    <g transform="matrix(1.64333,0,0,1.64333,-339.5,-110.833)">
        <circle cx="450" cy="250" r="150" style="stroke:white;stroke-width:0.3px;"/>
    </g>
    <g transform="matrix(1.55833,0,0,1.55833,-301.25,-89.5833)">
        <circle cx="450" cy="250" r="150" style="stroke:white;stroke-width:0.32px;"/>
    </g>
    <g transform="matrix(1.53,0,0,1.53,-288.5,-82.5)">
        <circle cx="450" cy="250" r="150" style="stroke:white;stroke-width:0.33px;"/>
    </g>
    <g transform="matrix(1.41667,0,0,1.41667,-237.5,-54.1667)">
        <circle cx="450" cy="250" r="150" style="stroke:white;stroke-width:0.35px;"/>
    </g>
    <g transform="matrix(1.275,0,0,1.275,-173.75,-18.75)">
        <circle cx="450" cy="250" r="150" style="stroke:white;stroke-width:0.39px;"/>
    </g>
    <g transform="matrix(1.105,0,0,1.105,-97.25,23.75)">
        <circle cx="450" cy="250" r="150" style="stroke:white;stroke-width:0.45px;"/>
    </g>
    <g transform="matrix(1.04833,0,0,1.04833,-71.75,37.9167)">
        <circle cx="450" cy="250" r="150" style="stroke:white;stroke-width:0.48px;"/>
    </g>
    <g transform="matrix(0.974667,0,0,0.974667,-38.6,56.3333)">
        <circle cx="450" cy="250" r="150" style="stroke:white;stroke-width:0.51px;"/>
    </g>
    <g transform="matrix(0.566667,0,0,0.566667,145,158.333)">
        <circle cx="450" cy="250" r="150" style="fill:rgb(255,0,0);stroke:black;stroke-width:0.88px;"/>
    </g>
    <g transform="matrix(0.566667,0,0,0.566667,145,158.333)">
        <circle cx="450" cy="250" r="150" style="fill:rgb(255,0,0);stroke:black;stroke-width:0.88px;"/>
    </g>
    <g transform="matrix(0.085,0,0,0.085,361.75,278.75)">
        <circle cx="450" cy="250" r="150" style="fill:rgb(235,235,235);stroke:black;stroke-width:5.88px;"/>
    </g>
    <g transform="matrix(2.3375,0,0,2.3375,-535,-401.25)">
        <circle cx="400" cy="300" r="20" style="fill-opacity:0;stroke:rgb(255,202,0);stroke-width:0.73px;"/>
    </g>
    <g transform="matrix(2.3375,0,0,2.3375,-535,-401.25)">
        <circle cx="400" cy="300" r="20" style="fill-opacity:0;stroke:rgb(255,202,0);stroke-width:0.73px;"/>
    </g>
    <g transform="matrix(1,0,0,1,-26.75,-26.75)">
        <g>
            <g transform="matrix(0.95434,0.298721,-0.298721,0.95434,102.448,-114.78)">
                <text x="426.69px" y="277.735px" style="font-family:'WingsofDarkness', 'Wings of Darkness';font-size:48px;">B</text>
            </g>
            <g transform="matrix(0.59179,0.806092,-0.806092,0.59179,416.283,-249.894)">
                <text x="454.874px" y="286.07px" style="font-family:'WingsofDarkness', 'Wings of Darkness';font-size:48px;">a</text>
            </g>
            <g transform="matrix(-0.0190247,0.999819,-0.999819,-0.0190247,794.909,-155.596)">
                <text x="473.786px" y="312.166px" style="font-family:'WingsofDarkness', 'Wings of Darkness';font-size:48px;">c</text>
            </g>
            <g transform="matrix(-0.607349,0.794435,-0.794435,-0.607349,1032.97,175.738)">
                <text x="473.057px" y="343.143px" style="font-family:'WingsofDarkness', 'Wings of Darkness';font-size:48px;">k</text>
            </g>
            <g transform="matrix(-0.973258,0.229713,-0.229713,-0.973258,983.728,621.404)">
                <text x="455.694px" y="367.962px" style="font-family:'WingsofDarkness', 'Wings of Darkness';font-size:48px;">t</text>
            </g>
            <g transform="matrix(-0.904698,-0.426053,0.426053,-0.904698,640.004,893.612)">
                <text x="419.946px" y="375.226px" style="font-family:'WingsofDarkness', 'Wings of Darkness';font-size:48px;">r</text>
            </g>
            <g transform="matrix(-0.482855,-0.8757,0.8757,-0.482855,265.375,883.63)">
                <text x="393.602px" y="363.456px" style="font-family:'WingsofDarkness', 'Wings of Darkness';font-size:48px;">a</text>
            </g>
            <g transform="matrix(0.148107,-0.988971,0.988971,0.148107,-9.19985,659.522)">
                <text x="378.223px" y="335.101px" style="font-family:'WingsofDarkness', 'Wings of Darkness';font-size:48px;">c</text>
            </g>
            <g transform="matrix(0.704998,-0.709209,0.709209,0.704998,-102.958,361.437)">
                <text x="382.984px" y="304.478px" style="font-family:'WingsofDarkness', 'Wings of Darkness';font-size:48px;">k</text>
            </g>
        </g>
    </g>
</svg>
